<svg enable-background="new 0 0 311 348.7" height="349" viewBox="0 0 311 348.7" width="311" xmlns="http://www.w3.org/2000/svg"><path d="m268.8 5.9c.1-1.6-1-3.7-2.7-4.1-2-.4-4-.7-6-1-.6-.5-1.4-.9-2.3-.9-75.7.9-151.5 1.6-227.3 2.4-2.2 0-4.1 1.4-4.3 3.7-4.5 51.2-5.7 102.6-3.5 154 .1 1.6.9 3.7 2.7 4.1 78 16 157.4 4.2 236.2 6.5 2 .1 4.3-1.5 4.3-3.7-1.1-53.7-.2-107.4 2.9-161z" fill="#c39a8a"/><path d="m249.9 21c.1-1.3-.8-3-2.3-3.3-1.7-.3-3.4-.6-5.1-.8-.5-.4-1.2-.7-1.9-.7-64.2.4-128.5.8-192.7 1.3-1.9 0-3.5 1.2-3.6 3-3.7 41.5-4.6 83.2-2.6 124.9.1 1.3.7 3 2.3 3.3 66.1 13.1 133.5 3.8 200.2 5.9 1.7.1 3.7-1.2 3.6-3-1-43.6-.4-87.1 2.1-130.6z" fill="#56597a"/><g fill="#57455d"><path d="m19.3 266.8c-.3-5.2-8.4-5.2-8.1 0 1.2 20.6 2.5 41.2 3.7 61.8.3 5.2 8.4 5.2 8.1 0-1.2-20.6-2.5-41.2-3.7-61.8z"/><path d="m127.2 270.8c-.5-5.1-8.6-5.2-8.1 0 2 20.7 1.5 41.5-1.5 62.1-.7 5.1 7 7.3 7.8 2.1 3.2-21.2 3.9-42.7 1.8-64.2z"/><path d="m93.5 257.4v56.5c0 5.2 8.1 5.2 8.1 0v-56.5c-.1-5.2-8.1-5.2-8.1 0z"/><path d="m39.7 264.1c.1-5.2-7.9-5.2-8.1 0-.4 17.5.2 35 2 52.5.5 5.1 8.6 5.2 8.1 0-1.7-17.4-2.4-34.9-2-52.5z"/></g><path d="m139.4 255.4c-3.5-5.8-7-11.5-10.5-17.3-2.7-4.5-5.1-9.7-8.6-13.6-2.9-3.2-6.3-3.7-10.4-4.1-29.9-3.1-60.1-5.4-90-.8-.8.1-1.3.4-1.8.8-1.3.3-2.5 1.1-3 2.7-4.5 13.1-8.9 26.3-13.4 39.4-2.8 8.3-3.5 16.8 7.2 18.3 6.1.8 12.8.1 19 .1 7-.1 14.1-.1 21.1-.2 13.6-.1 27.3-.2 40.9-.3 12.9-.1 26.1.7 38.9-.4 7-.6 14.8-3.7 15.3-11.7.4-4.9-2.3-9-4.7-12.9z" fill="#c39a8a"/><path d="m101 256.7c-.3-6-1.1-11.9-2.1-17.7-.3-1.7-2.3-3-3.9-3-17.4.4-34.8.8-52.2 1.2-.1 0-.1 0-.2 0-2.4-1.7-6.6-.7-6.4 3.1.4 6.7.7 13.4 1.2 20.1.3 3.8.5 7.7 3.8 10.3 3.1 2.4 7.1 2.1 10.8 2 6-.2 12-.4 18-.7s12-.7 17.9-1.3c3.3-.3 9.1.1 11.8-2.6 2.7-2.8 1.5-8.2 1.3-11.4z" fill="#f7d06f"/><path d="m67.5 265.9c-.5 11-1 22-1.6 33.1-.2 5.2 7.8 5.2 8.1 0 .5-11 1-22 1.6-33.1.2-5.2-7.9-5.2-8.1 0z" fill="#57455d"/><path d="m47.9 313.3c-.1 10.5-.6 21-1.3 31.5-.4 5.2 7.7 5.2 8.1 0 .8-10.5 1.2-21 1.3-31.5.1-5.2-8-5.2-8.1 0z" fill="#57455d"/><path d="m90.2 311.7c-.6-5.1-8.7-5.1-8.1 0 1.2 9.8 1.9 19.5 2 29.3 0 5.2 8.1 5.2 8.1 0-.1-9.7-.8-19.5-2-29.3z" fill="#57455d"/><path d="m104 300.7c0-2.3-1.9-3.9-4-4-13.9-.8-27.8-.9-41.6.1-3.6.3-17.8.3-17 6.5-.6 4.9 2.2 8.6 7.4 9.2 8 .9 16.8-1.2 25-1.1 4.2.1 8.4.3 12.6.6 3.6.3 7.9 1.6 11.5 1 6.3-.9 6.1-7.1 6.1-12.3z" fill="#f7d06f"/><path d="m186 266.4c-.3-5.2-8.4-5.2-8.1 0 1.2 20.6 2.5 41.2 3.7 61.8.3 5.2 8.4 5.2 8.1 0-1.2-20.6-2.4-41.2-3.7-61.8z" fill="#57455d"/><path d="m294 270.4c-.5-5.1-8.6-5.2-8.1 0 2 20.7 1.5 41.5-1.5 62.1-.7 5.1 7 7.3 7.8 2.1 3.1-21.3 3.8-42.7 1.8-64.2z" fill="#57455d"/><path d="m260.2 257v56.5c0 5.2 8.1 5.2 8.1 0v-56.5c0-5.2-8.1-5.2-8.1 0z" fill="#57455d"/><path d="m206.4 263.7c.1-5.2-7.9-5.2-8.1 0-.4 17.5.2 35 2 52.5.5 5.1 8.6 5.2 8.1 0-1.7-17.4-2.4-35-2-52.5z" fill="#57455d"/><path d="m306.2 255c-3.5-5.8-7-11.5-10.5-17.3-2.7-4.5-5.1-9.7-8.6-13.6-2.9-3.2-6.3-3.7-10.4-4.1-29.9-3.1-60.1-5.4-90-.8-.8.1-1.3.4-1.8.8-1.3.3-2.5 1.1-3 2.7-4.5 13.1-8.9 26.3-13.4 39.4-2.8 8.3-3.5 16.8 7.2 18.3 6.1.8 12.8.1 19 .1 7-.1 14.1-.1 21.1-.2 13.6-.1 27.3-.2 40.9-.3 12.9-.1 26.1.7 38.9-.4 7-.6 14.8-3.7 15.3-11.7.3-4.9-2.4-9-4.7-12.9z" fill="#c39a8a"/><path d="m267.8 256.2c-.3-6-1.1-11.9-2.1-17.7-.3-1.7-2.3-3-3.9-3-17.4.4-34.8.8-52.2 1.2-.1 0-.1 0-.2 0-2.4-1.7-6.6-.7-6.4 3.1.4 6.7.7 13.4 1.2 20.1.3 3.8.5 7.7 3.8 10.3 3.1 2.4 7.1 2.1 10.8 2 6-.2 12-.4 18-.7s12-.7 17.9-1.3c3.3-.3 9.1.1 11.8-2.6 2.6-2.7 1.4-8.1 1.3-11.4z" fill="#f7d06f"/><path d="m234.2 265.4c-.5 11-1 22-1.6 33.1-.2 5.2 7.8 5.2 8.1 0 .5-11 1-22 1.6-33.1.2-5.2-7.8-5.1-8.1 0z" fill="#57455d"/><path d="m214.7 312.9c-.1 10.5-.6 21-1.3 31.5-.4 5.2 7.7 5.2 8.1 0 .8-10.5 1.2-21 1.3-31.5 0-5.2-8.1-5.2-8.1 0z" fill="#57455d"/><path d="m256.9 311.3c-.6-5.1-8.7-5.1-8.1 0 1.2 9.8 1.9 19.5 2 29.3 0 5.2 8.1 5.2 8.1 0-.1-9.8-.7-19.5-2-29.3z" fill="#57455d"/><path d="m270.7 300.3c0-2.3-1.9-3.9-4-4-13.9-.8-27.8-.9-41.6.1-3.6.3-17.8.3-17 6.5-.6 4.9 2.2 8.6 7.4 9.2 8 .9 16.8-1.2 25-1.1 4.2.1 8.4.3 12.6.6 3.6.3 7.9 1.6 11.5 1 6.4-.9 6.1-7.2 6.1-12.3z" fill="#f7d06f"/><path d="m107 66.6c-.2-2.1-1.6-4.2-4-4-7.6.4-14 11.1-18.4 16.4-3.3 4 2.4 9.7 5.7 5.7 2-2.5 4.1-4.9 6.2-7.2.6-.6 1.9-2.4 3.3-4 1.2 11.1 2.2 22.2 2.9 33.4.3 5.2 8.4 5.2 8.1 0-.9-13.5-2.2-26.9-3.8-40.3z" fill="#ececec"/><path d="m159.2 82.9c-1.2.1-2.5.1-3.7.1 0-1.4-.1-2.9-.1-4.3-.2-5.2-8.2-5.2-8.1 0 0 1.4.1 2.7.1 4.1-1.6-.1-3.2-.2-4.7-.4-5.1-.6-5.1 7.5 0 8.1 1.7.2 3.3.3 5 .4.1 2.6.2 5.1.3 7.7.2 5.2 8.2 5.2 8.1 0-.1-2.5-.2-5-.2-7.5 1.2 0 2.3 0 3.5-.1 5-.3 5-8.4-.2-8.1z" fill="#ececec"/><path d="m197.1 61.5c-.3-2.7-3.3-5.5-6.1-3.5-6 4.4-10.5 9.7-13.4 16.6-2 4.7 4.9 8.8 7 4.1 1.4-3.2 3.1-6.1 5.2-8.7 1 10.6 1.9 21.2 2.7 31.9.4 5.1 8.4 5.2 8.1 0-1-13.6-2.1-27-3.5-40.4z" fill="#ececec"/></svg>