<svg enable-background="new 0 0 80.2 61.8" height="62" viewBox="0 0 80.2 61.8" width="81" xmlns="http://www.w3.org/2000/svg"><path d="m76.8 15.3c-8.3-1.1-16.6-2.2-24.9-3.2-3.4-.4-7.5-1.7-10.9-1-3.1.6-5.4 3.4-7.5 5.5-5.3 5.4-9.6 11.6-13.9 17.8-4.8 6.8-9.6 13.6-14.5 20.4-.7 1 0 2 .9 2.3.2.1.5.2.9.2 16.8-1.5 33.7 0 49.9 4.4.7.2 1.6-.1 1.9-.8 7.3-14.1 13.9-28.6 19.7-43.4.5-1.2-.6-2.1-1.6-2.2z" fill="#f7d06f"/><path d="m78.9 12.1c-2.3-5.4-8.6-3.7-12.9-2.1-6.5 2.4-12.7 5.6-18.8 9-7.1 3.9-14.2 8.1-21.2 12.1-6.4 3.7-13.3 7.2-18.1 13-.5.6-.5 1.4-.2 2-.9 2.2.2 5.1 2.7 6.4 2.4 1.3 5.6 1.3 8.2 1.5 4.1.4 8.1.9 12.2 1.3 7.5.8 15 1.9 22.5 2.5 2.5.2 4.5-.2 6.1-2.2 2.1-2.6 3.6-5.9 5.3-8.8 3.8-6.5 7.4-13 10.7-19.7 2.1-4.2 5.6-10 3.5-15z" fill="#ececec"/><path d="m76.6 5.1c-8.3-1.1-16.6-2.2-24.9-3.2-3.4-.4-7.5-1.7-10.9-1-3.1.6-5.4 3.4-7.5 5.5-5.3 5.4-9.6 11.6-13.9 17.8-4.8 6.8-9.6 13.6-14.5 20.4-.7 1 0 2 .9 2.3.2.1.5.2.9.2 16.8-1.5 33.7 0 49.9 4.4.7.2 1.6-.1 1.9-.8 7.3-14.1 13.9-28.6 19.7-43.4.5-1.2-.7-2.1-1.6-2.2z" fill="#f7d06f"/><path d="m61.9 9.7c-4.8.6-9.4-.4-14.2-1.1-3.1-.5-7.5-1.6-10 1-.6.6-1.2 1.5-1.6 2.5-1.4 1.3-2.9 3.3-1.5 4.8 1 1.1 3.7.9 5 1 2.4.2 4.7.4 7.1.5s4.7.3 7.1.4c2 .1 4.3.5 6.2.1 3.3-.5 3-4.5 3.4-7.1.3-.9-.3-2.3-1.5-2.1z" fill="#ececec"/><path d="m38.1 2.5c-2.7-3.3-8.5-3.6-10.1.7-.1 0-.3 0-.4.1-2.5.6-3.9 3.1-4.1 5.6-1.6 1.2-2.6 3.2-3.2 5.3-.2.1-.4.1-.6.2-2.3 1.2-3.2 3.6-3.4 6-1 .1-2.1.6-2.9 1.5-1.3 1.3-2.1 3.6-2.2 5.8-1 0-1.9.3-2.8 1-2.7 1.9-2.9 5.2-2.6 8.2-2.5.1-4.8 2.5-5.4 5.1-.9 4-.4 9.8 4.1 11.1 2.1.6 3-2.6.9-3.2-2.2-.7-2-4-1.9-5.8.1-1.7 1.2-5 3.4-3.4 1.5 1.1 3-.9 2.2-2.3.1-.3.2-.6.1-1-.3-1.8-.7-3.9.5-5.5.5-.7 1.4-1 2.2-.8.1.3.3.5.5.7.4.4.8.6 1.2.5 1.3 1.1 3.6-.5 2.5-2.1-.4-.6-1-1.2-1.6-1.6-.1-1.1.3-2.9.6-3.5.2-.4.8-1.2 1.4-1.5.3.4.7.6 1.2.6.9 1.7 3.9.8 3.1-1.1-.3-.8-.8-1.4-1.4-1.9 0-1.1.2-2.2.8-3.1.8.5 2 .5 2.4-.6.1.1.2.4.3.6.4 2.1 3.6 1.2 3.2-.9-.3-1.5-1.3-2.5-2.5-3 .3-.7.7-1.5 1.1-2.1.1-.2.2-.3.3-.4.2 0 .4 0 .5-.1.1.1.2.2.4.3.6.5 1.1 1 1.8 1.3 2 .9 3.7-2 1.7-2.9-1-.4-1.7-1.4-2.7-1.9 0 0 0 0-.1 0 .1-.7.5-1.4 1.1-1.7.5-.3 1.9-.2 2 .6.2 2.1 3.6 2.2 3.4 0-.1-1.4-.9-2.6-2-3.3 1-1.4 3.3-.3 4.3.9 1.7 1.6 4-.8 2.7-2.4z" fill="#56597a"/><g fill="#57455d"><path d="m59.1 12.4c-5.9.5-11.7.2-17.5-.9-2.1-.4-3 2.8-.9 3.2 6.1 1.2 12.2 1.5 18.4 1 2.1-.1 2.2-3.5 0-3.3z"/><path d="m57.4 54c-7-.8-14-1.6-21.1-2.4-6.9-.8-13.6-2.4-20.5-3.5-2.1-.4-3 2.9-.9 3.2 6.8 1.2 13.5 2.7 20.3 3.5 7.4.9 14.7 1.7 22.1 2.5 2.3.3 2.2-3.1.1-3.3z"/><path d="m77.2 14.7c-2.5 5-4.7 10.1-6.7 15.3-.8 2 2.5 2.9 3.2.9 1.9-4.9 4-9.8 6.3-14.5 1.1-2-1.8-3.7-2.8-1.7z"/></g></svg>